HIERARCHY
ROOT Hips
{
	OFFSET -0.001795 -0.223333 0.028219
	CHANNELS 6 Xposition Yposition Zposition Zrotation Yrotation Xrotation 
	JOINT LeftUpLeg
	{
		OFFSET 0.069520 -0.091406 -0.006815
		CHANNELS 3 Zrotation Yrotation Xrotation
		JOINT LeftLeg
		{
			OFFSET 0.034277 -0.375199 -0.004496
			CHANNELS 3 Zrotation Yrotation Xrotation
			JOINT LeftFoot
			{
				OFFSET -0.013596 -0.397961 -0.043693
				CHANNELS 3 Zrotation Yrotation Xrotation
				JOINT LeftToe
				{
					OFFSET 0.026358 -0.055791 0.119288
					CHANNELS 3 Zrotation Yrotation Xrotation
					End Site
					{
						OFFSET 0.000000 0.000000 0.000000
					}
				}
			}
		}
	}
	JOINT RightUpLeg
	{
		OFFSET -0.067670 -0.090522 -0.004320
		CHANNELS 3 Zrotation Yrotation Xrotation
		JOINT RightLeg
		{
			OFFSET -0.038290 -0.382569 -0.008850
			CHANNELS 3 Zrotation Yrotation Xrotation
			JOINT RightFoot
			{
				OFFSET 0.015774 -0.398415 -0.042312
				CHANNELS 3 Zrotation Yrotation Xrotation
				JOINT RightToe
				{
					OFFSET -0.025372 -0.048144 0.123348
					CHANNELS 3 Zrotation Yrotation Xrotation
					End Site
					{
						OFFSET 0.000000 0.000000 0.000000
					}
				}
			}
		}
	}
	JOINT Spine
	{
		OFFSET -0.002533 0.108963 -0.026696
		CHANNELS 3 Zrotation Yrotation Xrotation
		JOINT Spine1
		{
			OFFSET 0.005487 0.135180 0.001092
			CHANNELS 3 Zrotation Yrotation Xrotation
			JOINT Spine2
			{
				OFFSET 0.001457 0.052922 0.025425
				CHANNELS 3 Zrotation Yrotation Xrotation
				JOINT Neck
				{
					OFFSET -0.002778 0.213870 -0.042857
					CHANNELS 3 Zrotation Yrotation Xrotation
					JOINT Head
					{
						OFFSET 0.005152 0.064970 0.051349
						CHANNELS 3 Zrotation Yrotation Xrotation
						End Site
						{
							OFFSET 0.000000 0.000000 0.000000
						}
					}
				}
				JOINT LeftShoulder
				{
					OFFSET 0.078845 0.121749 -0.034090
					CHANNELS 3 Zrotation Yrotation Xrotation
					JOINT LeftArm
					{
						OFFSET 0.090977 0.030469 -0.008868
						CHANNELS 3 Zrotation Yrotation Xrotation
						JOINT LeftForeArm
						{
							OFFSET 0.259612 -0.012772 -0.027456
							CHANNELS 3 Zrotation Yrotation Xrotation
							JOINT LeftHand
							{
								OFFSET 0.249234 0.008986 -0.001171
								CHANNELS 3 Zrotation Yrotation Xrotation
								End Site
								{
									OFFSET 0.000000 0.000000 0.000000
								}
							}
						}
					}
				}
				JOINT RightShoulder
				{
					OFFSET -0.081759 0.118833 -0.038615
					CHANNELS 3 Zrotation Yrotation Xrotation
					JOINT RightArm
					{
						OFFSET -0.096012 0.032551 -0.009143
						CHANNELS 3 Zrotation Yrotation Xrotation
						JOINT RightForeArm
						{
							OFFSET -0.253742 -0.013329 -0.021401
							CHANNELS 3 Zrotation Yrotation Xrotation
							JOINT RightHand
							{
								OFFSET -0.255298 0.007772 -0.005559
								CHANNELS 3 Zrotation Yrotation Xrotation
								End Site
								{
									OFFSET 0.000000 0.000000 0.000000
								}
							}
						}
					}
				}
			}
		}
	}
}
MOTION
Frames: 10
Frame Time: 0.050000
-0.645013 0.897832 1.084068 4.827467 -22.006390 -6.671261 -11.341277 -3.577173 -24.602511 -8.294342 5.739406 31.957458 -2.553882 -1.975431 10.529338 0.000000 0.000000 0.000000 12.694115 3.581350 -16.177079 8.464120 3.082063 48.025886 4.041065 -2.508017 17.767286 0.000000 0.000000 0.000000 -5.749845 3.563292 36.997879 -3.108895 1.231294 -32.725814 -3.680838 23.474636 26.766827 15.170602 -3.425504 -36.006068 0.000000 0.000000 0.000000 -9.584117 -8.120658 1.650442 1.064007 7.254806 0.561980 10.025342 -1.372868 -0.186371 0.000000 0.000000 0.000000 -10.981112 15.575684 2.590525 -30.464116 30.908167 -5.504126 -10.544952 2.522767 0.047465 0.000000 0.000000 0.000000 
-0.742409 0.879469 1.103496 2.593057 -19.512867 -7.417745 -9.142080 -3.136920 -22.875280 -4.300535 4.289834 37.143138 -0.362344 -0.137303 2.040202 0.000000 0.000000 0.000000 9.254637 4.707929 -22.494790 16.697081 -1.485205 54.085691 20.084144 10.578430 39.989323 0.000000 0.000000 0.000000 -5.906690 3.771615 40.607584 -5.046049 1.512751 -32.348061 -4.642237 18.576519 25.696032 17.061425 -5.895843 -31.734395 0.000000 0.000000 0.000000 -5.362485 -7.720938 2.218558 5.485993 11.680231 1.774973 7.119509 5.480166 0.100107 0.000000 0.000000 0.000000 -9.756442 10.394212 1.829745 -31.026765 21.699744 -2.665357 -13.787473 0.035837 0.264085 0.000000 0.000000 0.000000 
-0.834898 0.869695 1.122538 1.812373 -18.690976 -8.282358 -4.894931 -2.167054 -20.259850 -1.964402 3.437760 40.372261 1.607770 2.548755 -4.074716 0.000000 0.000000 0.000000 4.215809 5.025077 -27.998185 18.480128 -2.881891 55.073021 33.976498 19.598573 52.491281 0.000000 0.000000 0.000000 -7.448470 4.671033 43.191355 -3.782513 1.323953 -34.301570 -5.004127 15.761755 28.227599 18.292278 -7.504280 -30.503872 0.000000 0.000000 0.000000 -5.440850 -6.878297 2.128241 10.252616 15.905449 3.499417 4.377351 5.002309 0.003832 0.000000 0.000000 0.000000 -5.717353 6.802379 1.501037 -31.015487 16.051471 -0.808616 -16.438174 -0.094391 0.247106 0.000000 0.000000 0.000000 
-0.924794 0.866454 1.141535 -1.081308 -18.557982 -7.490561 3.245828 -0.455275 -18.879347 -0.139542 2.761053 44.228051 0.666568 -0.238168 -5.920500 0.000000 0.000000 0.000000 -0.015084 4.998817 -32.376881 17.952202 -2.961386 48.741721 31.258784 20.287344 47.758211 0.000000 0.000000 0.000000 -7.825253 4.928622 44.560756 -4.161742 1.313426 -32.892276 -3.570142 13.140649 26.301691 18.249830 -8.196023 -28.327386 0.000000 0.000000 0.000000 -2.259672 -5.173279 1.698617 9.091830 16.828048 3.336347 6.164047 4.575120 0.070519 0.000000 0.000000 0.000000 -1.750426 5.783168 1.726090 -27.440025 12.043669 0.207726 -18.466726 0.843149 0.115494 0.000000 0.000000 0.000000 
-1.013749 0.870337 1.160281 -2.804085 -15.750673 -6.646143 9.023505 0.602320 -17.029572 1.704106 0.860816 43.916331 0.557819 0.537622 -2.228874 0.000000 0.000000 0.000000 -5.751121 3.617436 -34.257875 15.010522 -2.388754 42.297961 -8.374114 -22.001777 9.774073 0.000000 0.000000 0.000000 -9.024519 4.915063 45.038279 -1.560454 0.852265 -32.135294 -3.241883 10.991176 26.759977 18.085008 -8.290844 -28.185832 0.000000 0.000000 0.000000 -2.915010 -3.507532 1.099517 11.223291 16.062910 3.922971 6.215374 2.811079 0.041831 0.000000 0.000000 0.000000 3.297165 5.927970 2.182158 -22.845930 12.110991 0.020777 -22.810630 1.424225 -0.038385 0.000000 0.000000 0.000000 
-1.101694 0.870939 1.178449 -4.615064 -15.619961 -4.929658 16.207205 2.032269 -15.896629 0.449372 1.281632 43.321754 3.193061 7.341339 3.874131 0.000000 0.000000 0.000000 -9.995980 2.781554 -36.238049 11.154040 -1.033757 36.196198 -14.033425 -31.152767 12.981411 0.000000 0.000000 0.000000 -8.999821 4.709555 44.360222 -1.841390 0.828030 -30.258734 -1.796755 11.092781 25.377172 16.127629 -7.197863 -26.824404 0.000000 0.000000 0.000000 -0.604119 -4.666233 1.570981 9.654286 14.100574 3.211059 8.829300 1.330830 0.019418 0.000000 0.000000 0.000000 8.760283 6.133382 2.679641 -17.149294 13.175489 -0.388899 -24.982715 3.217712 -0.353246 0.000000 0.000000 0.000000 
-1.188902 0.867904 1.196446 -5.504439 -15.675230 -3.790263 20.680612 3.088514 -16.286278 -0.890606 2.071582 44.556656 6.922320 14.490054 8.846103 0.000000 0.000000 0.000000 -12.957014 2.037132 -35.753694 6.400274 0.441946 30.514558 -8.900974 -23.356961 20.293421 0.000000 0.000000 0.000000 -9.285648 4.746301 43.571357 0.628739 0.351907 -30.207462 -2.021368 13.297576 25.460862 16.269407 -6.941206 -26.842442 0.000000 0.000000 0.000000 -1.837011 -5.903098 1.895007 9.509129 8.839120 2.465318 14.692778 -1.288664 -0.297850 0.000000 0.000000 0.000000 16.033923 7.617705 4.397223 -13.583722 14.700413 -0.703839 -27.929097 7.261408 -1.299183 0.000000 0.000000 0.000000 
-1.274696 0.857606 1.212532 -5.705270 -14.036736 -2.497082 23.114910 3.939508 -19.544704 0.284217 1.140202 47.698696 6.968825 14.752764 10.803939 0.000000 0.000000 0.000000 -16.677423 0.917283 -35.337569 2.104374 1.523809 27.900361 -0.831204 -12.473276 26.693594 0.000000 0.000000 0.000000 -8.859494 4.150686 43.062393 1.463145 0.153296 -29.546535 -1.762129 13.732104 24.347919 15.764108 -6.299819 -27.054891 0.000000 0.000000 0.000000 -4.155803 -9.005761 2.825453 8.112813 2.560079 1.385373 19.256665 -5.376954 -1.065147 0.000000 0.000000 0.000000 24.405722 6.727966 5.145159 -8.568841 20.598822 -1.838345 -26.996708 10.943093 -1.954692 0.000000 0.000000 0.000000 
-1.356247 0.843788 1.224675 -6.344968 -13.410492 -1.651370 26.143209 5.003245 -21.512628 1.108275 0.538968 51.033001 5.949729 13.012318 8.552232 0.000000 0.000000 0.000000 -17.623915 0.644647 -36.265531 2.359291 1.751771 32.070203 2.724740 -7.058152 26.521662 0.000000 0.000000 0.000000 -7.319367 3.448380 43.657786 2.086269 0.179917 -31.617912 -1.280100 12.442847 25.816914 14.492232 -6.136440 -25.882032 0.000000 0.000000 0.000000 -11.657704 -11.256150 3.708075 8.016468 -3.885936 0.616699 23.977386 -11.204006 -2.498168 0.000000 0.000000 0.000000 31.867599 9.710192 7.578872 -1.075438 23.004618 -2.008926 -28.068625 17.027410 -3.400410 0.000000 0.000000 0.000000 
-1.430469 0.829138 1.230156 -5.955922 -12.623053 -1.872970 24.319076 4.990777 -24.918744 2.681827 -0.546343 56.361905 4.754240 9.840822 0.421302 0.000000 0.000000 0.000000 -18.686188 0.236663 -36.015251 6.574599 0.357473 37.633853 0.703239 -8.269233 21.529244 0.000000 0.000000 0.000000 -5.142115 2.710918 46.985924 0.211575 0.561374 -32.880966 -1.096359 10.151063 25.064344 14.489060 -5.747428 -28.885426 0.000000 0.000000 0.000000 -16.211018 -18.419474 7.483367 5.249377 -6.105841 0.107986 27.922553 -16.994768 -4.217376 0.000000 0.000000 0.000000 38.227446 9.722410 7.370866 5.636858 24.635197 -1.691718 -26.290467 21.685581 -4.019033 0.000000 0.000000 0.000000 
